<?xml version="1.0" encoding="UTF-8"?>
<svg width="45px" height="45px" viewBox="0 0 45 45" version="1.1" xmlns="http://www.w3.org/2000/svg" xmlns:xlink="http://www.w3.org/1999/xlink">
    <!-- Generator: Sketch 53.2 (72643) - https://sketchapp.com -->
    <title>arrow-left-double</title>
    <desc>Created with Sketch.</desc>
    <g id="arrow-left-double" stroke="none" stroke-width="1" fill="none" fill-rule="evenodd">
        <g transform="translate(11.000000, 8.000000)" fill="#333333" fill-rule="nonzero" id="形状">
            <path d="M14.9645178,30 C14.6519728,30 14.3394277,29.880555 14.1011121,29.6411094 L0.358059588,15.8666012 C-0.119353196,15.3869719 -0.119353196,14.6140003 0.358059588,14.134371 L14.1011121,0.358751661 C14.5777433,-0.119583887 15.3512923,-0.119583887 15.8284817,0.358751661 C16.305671,0.836531651 16.305671,1.6120908 15.8284817,2.09042634 L2.94995107,14.9999306 L15.8284817,27.9094348 C16.305671,28.3877703 16.305671,29.1633295 15.8284817,29.6411094 C15.590166,29.8799994 15.2770629,30 14.9645178,30 L14.9645178,30 Z M22.7781442,30 C22.4655991,30 22.1530541,29.880555 21.9147385,29.6411094 L8.17168594,15.8666012 C7.69427316,15.3869719 7.69427316,14.6140003 8.17168594,14.134371 L21.9147385,0.358751661 C22.3913697,-0.119583887 23.1649187,-0.119583887 23.642108,0.358751661 C24.1192973,0.836531651 24.1192973,1.6120908 23.642108,2.09042634 L10.7635774,14.9999306 L23.642108,27.9094348 C24.1192973,28.3877703 24.1192973,29.1633295 23.642108,29.6411094 C23.4037924,29.8799994 23.0906892,30 22.7781442,30 L22.7781442,30 Z"></path>
        </g>
    </g>
</svg>