<?xml version="1.0" standalone="no"?><!DOCTYPE svg PUBLIC "-//W3C//DTD SVG 1.1//EN" "http://www.w3.org/Graphics/SVG/1.1/DTD/svg11.dtd"><svg t="1541760486108" class="icon" style="" viewBox="0 0 1024 1024" version="1.1" xmlns="http://www.w3.org/2000/svg" p-id="4465" xmlns:xlink="http://www.w3.org/1999/xlink" width="200" height="200"><defs><style type="text/css"></style></defs><path d="M663.936 603.904h96.128v96.128h-96.128V603.904z m-200 0H560v96.128H463.936V603.904z m0-139.968H560V560H463.936V463.936z m200 0h96.128V560h-96.128V463.936z m208-320H800v-51.84a28.16 28.16 0 0 0-56.128 0v51.84H280.064v-51.84a28.16 28.16 0 0 0-56.064 0v51.84H152.064C103.488 144 64 183.552 64 232.128v639.872C64 920.512 103.488 960 152.064 960h719.872c48.576 0 88.064-39.488 88.064-88.064V232.064c0-48.576-39.488-88.064-88.064-88.064zM252.032 280.192a28.16 28.16 0 0 0 28.032-28.16v-51.84h463.808v51.84a28.096 28.096 0 0 0 56.128 0v-51.84h71.936a32 32 0 0 1 31.936 31.936v111.872H120.128V232.064a32 32 0 0 1 31.936-32H224v51.968c0 15.488 12.544 28.096 28.032 28.096z m651.84 591.808a32 32 0 0 1-31.936 31.936H152.064a32 32 0 0 1-32-31.936V400.064h783.808v471.872z m-439.936-128H560v96.064H463.936v-96.128zM263.936 603.84h96.128v96.128H263.936V603.904z m0 139.968h96.128v96.128H263.936v-96.128z m0-279.936h96.128V560H263.936V463.936z" p-id="4466"></path></svg>