<?xml version="1.0" standalone="no"?><!DOCTYPE svg PUBLIC "-//W3C//DTD SVG 1.1//EN" "http://www.w3.org/Graphics/SVG/1.1/DTD/svg11.dtd"><svg t="1541761626022" class="icon" style="" viewBox="0 0 1024 1024" version="1.1" xmlns="http://www.w3.org/2000/svg" p-id="931" xmlns:xlink="http://www.w3.org/1999/xlink" width="200" height="200"><defs><style type="text/css"></style></defs><path d="M567.7 514.9l254.8-254.6c15.4-15.4 15.4-40.3 0-55.6-15.4-15.4-40.3-15.4-55.6 0L512 459.2 257.1 204.6c-15.4-15.4-40.3-15.4-55.6 0-15.4 15.4-15.4 40.3 0 55.6l254.8 254.6-254.8 254.7c-15.4 15.4-15.4 40.3 0 55.6 7.7 7.7 17.8 11.5 27.8 11.5 10.1 0 20.1-3.8 27.8-11.5L512 570.5l254.9 254.7c7.7 7.7 17.7 11.5 27.8 11.5 10.1 0 20.1-3.8 27.8-11.5 15.4-15.4 15.4-40.3 0-55.6L567.7 514.9z" p-id="932"></path></svg>