<?xml version="1.0" standalone="no"?><!DOCTYPE svg PUBLIC "-//W3C//DTD SVG 1.1//EN" "http://www.w3.org/Graphics/SVG/1.1/DTD/svg11.dtd"><svg class="icon" width="200px" height="200.00px" viewBox="0 0 1024 1024" version="1.1" xmlns="http://www.w3.org/2000/svg"><path fill="#333333" d="M512 960C277.605 960 86.897 769.291 86.897 534.897S277.605 109.793 512 109.793c116.878 0 225.773 46.433 306.693 130.737 9.644 10.027 44.069 47.518 52.628 58.44 11.113 14.242 8.558 34.807-5.685 45.92-14.306 11.114-34.872 8.494-45.92-5.684-7.793-10.027-39.408-44.197-48.158-53.33-68.53-71.403-160.69-110.682-259.558-110.682-198.309 0-359.703 161.394-359.703 359.703S313.691 894.599 512 894.599s359.703-161.393 359.703-359.702c0-18.075 14.625-32.7 32.7-32.7s32.7 14.625 32.7 32.7C937.103 769.29 746.395 960 512 960zM838.684 371.396h-215.49c-18.075 0-32.7-14.626-32.7-32.7s14.625-32.701 32.7-32.701h209.294V96.7c0-18.074 14.626-32.7 32.7-32.7s32.701 14.626 32.701 32.7v215.49c0 32.636-26.57 59.206-59.205 59.206z" /></svg>