<?xml version="1.0" encoding="UTF-8"?>
<svg width="151px" height="105px" viewBox="0 0 151 105" version="1.1" xmlns="http://www.w3.org/2000/svg" xmlns:xlink="http://www.w3.org/1999/xlink">
    <!-- Generator: Sketch 53.2 (72643) - https://sketchapp.com -->
    <title>img-figure</title>
    <desc>Created with Sketch.</desc>
    <g id="img-figure" stroke="none" stroke-width="1" fill="none" fill-rule="evenodd">
        <g fill="#000000" fill-rule="nonzero" id="形状">
            <path d="M148.125,5.37109375 C146.777344,3.9453125 144.84375,3.14453125 142.832031,3.06640625 L85.4296875,0.91796875 L81.1328125,10.078125 L87.109375,27.109375 L76.328125,46.4453125 L80.703125,62.0507812 L91.640625,75.4296875 L107.460937,61.6601562 C108.984375,60.3125 111.425781,60.390625 112.753906,61.8945312 L133.046875,82.6757812 C134.472656,84.1015625 134.394531,86.4257813 132.871094,87.7734375 C132.109375,88.4179687 131.191406,88.8085937 130.175781,88.7304687 L74.5507813,86.6601562 L71.7773438,94.21875 L74.8046875,100.976563 L138.769531,103.28125 C142.96875,103.4375 146.503906,100.332031 146.601563,96.3476562 L150.15625,10.546875 C150.234375,8.6328125 149.550781,6.71875 148.125,5.37109375 Z M107.050781,44.765625 C100.742188,44.53125 95.859375,39.5117188 96.1132812,33.6132812 C96.3671875,27.6367187 101.660156,23.0273438 107.890625,23.2617188 C114.121094,23.4960937 119.082031,28.515625 118.828125,34.4140625 C118.59375,40.3125 113.28125,45.0195312 107.050781,44.765625 Z M65.8203125,94.296875 L67.7539063,86.328125 L22.5585938,89.2773438 C20.4492188,89.4335938 18.6914063,88.0078125 18.515625,86.015625 C18.4375,85.0585938 18.7695313,84.1015625 19.4335938,83.3789062 L52.9296875,46.9921875 C53.59375,46.1914062 54.609375,45.8007812 55.703125,45.8007812 C56.71875,45.8007812 57.7148438,46.1914062 58.4765625,46.9140625 L69.6679688,57.9882812 L64.8632813,46.2109375 L73.4570312,25.8398437 L65.625,9.51171875 L68.828125,0.1171875 L7.2265625,4.1796875 C3.02734375,4.4140625 -0.09765625,7.8515625 0.15625,11.8164062 L6.38671875,97.6367188 C6.46484375,99.5507812 7.40234375,101.289063 9.00390625,102.5 C10.5273438,103.769531 12.4609375,104.414062 14.4726563,104.257812 L69.5117188,100.683594 L65.8203125,94.296875 Z"></path>
        </g>
    </g>
</svg>