<?xml version="1.0" standalone="no"?><!DOCTYPE svg PUBLIC "-//W3C//DTD SVG 1.1//EN" "http://www.w3.org/Graphics/SVG/1.1/DTD/svg11.dtd"><svg class="icon" width="200px" height="200.00px" viewBox="0 0 1024 1024" version="1.1" xmlns="http://www.w3.org/2000/svg"><path fill="#333333" d="M512 0C229.2 0 0 229.2 0 512s229.2 512 512 512 512-229.2 512-512S794.8 0 512 0z m-3 184.5c19.9 0 36 16.1 36 36s-16.1 36-36 36-36-16.1-36-36 16.1-36 36-36z m157.2 557.1c0 19.9-16.1 36-36 36H387.8c-19.9 0-36-16.1-36-36s16.1-36 36-36H473V391.5h-60c-19.9 0-36-16.1-36-36s16.1-36 36-36h96c19.9 0 36 16.1 36 36v350.1h85.2c19.9 0 36 16.1 36 36z" /></svg>