<?xml version="1.0" standalone="no"?><!DOCTYPE svg PUBLIC "-//W3C//DTD SVG 1.1//EN" "http://www.w3.org/Graphics/SVG/1.1/DTD/svg11.dtd"><svg class="icon" width="200px" height="200.00px" viewBox="0 0 1024 1024" version="1.1" xmlns="http://www.w3.org/2000/svg"><path fill="#333333" d="M76.228 521.296C34.18 521.296 0 486.972 0 444.926s34.181-76.372 76.228-76.372 76.37 34.181 76.37 76.371c0 42.047-34.323 76.371-76.37 76.371z m435.2 0c-42.047 0-76.228-34.18-76.228-76.37 0-42.048 34.181-76.372 76.228-76.372s76.228 34.181 76.228 76.371c0 42.047-34.181 76.371-76.228 76.371z m434.914 0c-42.047 0-76.228-34.18-76.228-76.37 0-42.048 34.181-76.372 76.228-76.372s76.228 34.181 76.228 76.371c0 42.047-34.181 76.371-76.228 76.371z" /></svg>