<?xml version="1.0" standalone="no"?><!DOCTYPE svg PUBLIC "-//W3C//DTD SVG 1.1//EN" "http://www.w3.org/Graphics/SVG/1.1/DTD/svg11.dtd"><svg t="1541760942956" class="icon" style="" viewBox="0 0 1028 1024" version="1.1" xmlns="http://www.w3.org/2000/svg" p-id="12526" xmlns:xlink="http://www.w3.org/1999/xlink" width="200.78125" height="200"><defs><style type="text/css"></style></defs><path d="M965.427 541.836C955.039 339.606 811.004 169.47 615.45 124.45c-13.491-3.106-26.946 5.313-30.052 18.804-3.105 13.491 5.313 26.946 18.805 30.052 173.819 40.015 301.922 191.333 311.156 371.102 0.71 13.826 12.494 24.458 26.32 23.748 13.826-0.71 24.458-12.494 23.748-26.32zM386.693 130.952C195.198 186.776 61.06 362.948 61.06 565.41c0 44.105 6.318 87.392 18.627 128.886 3.937 13.272 17.888 20.84 31.16 16.902 13.273-3.937 20.84-17.888 16.903-31.16-10.94-36.878-16.557-75.363-16.557-114.628 0-180.028 119.29-336.699 289.531-386.327 13.29-3.874 20.924-17.79 17.05-31.08-3.875-13.29-17.79-20.924-31.08-17.05zM196.357 888.108c84.056 82.629 196.93 129.786 317.188 129.786 129.776 0 250.76-54.963 336.013-149.431 9.275-10.278 8.462-26.128-1.816-35.403-10.277-9.275-26.128-8.462-35.403 1.815-75.844 84.042-183.357 132.886-298.794 132.886-106.976 0-207.271-41.902-282.043-115.405-9.873-9.705-25.744-9.57-35.449 0.303-9.705 9.873-9.569 25.744 0.304 35.449z" p-id="12527"></path><path d="M498.28 285.176c72.859 0 131.922-59.063 131.922-131.921 0-72.858-59.063-131.922-131.922-131.922-72.858 0-131.921 59.064-131.921 131.922s59.063 131.921 131.921 131.921z m0-50.133c-45.17 0-81.788-36.618-81.788-81.788 0-45.17 36.618-81.788 81.788-81.788 45.17 0 81.788 36.617 81.788 81.788 0 45.17-36.617 81.788-81.788 81.788zM131.921 926.304c72.859 0 131.922-59.063 131.922-131.921 0-72.858-59.063-131.921-131.922-131.921C59.063 662.462 0 721.525 0 794.382c0 72.86 59.063 131.922 131.921 131.922z m0-50.133c-45.17 0-81.788-36.618-81.788-81.788 0-45.17 36.618-81.788 81.788-81.788 45.17 0 81.788 36.618 81.788 81.788 0 45.17-36.617 81.788-81.788 81.788zM895.17 895.774c72.857 0 131.92-59.063 131.92-131.921 0-72.858-59.063-131.921-131.92-131.921-72.859 0-131.922 59.063-131.922 131.921 0 72.858 59.063 131.921 131.921 131.921z m0-50.133c-45.171 0-81.789-36.618-81.789-81.788 0-45.17 36.618-81.788 81.788-81.788 45.17 0 81.788 36.618 81.788 81.788 0 45.17-36.617 81.788-81.788 81.788z" p-id="12528"></path></svg>