<?xml version="1.0" standalone="no"?><!DOCTYPE svg PUBLIC "-//W3C//DTD SVG 1.1//EN" "http://www.w3.org/Graphics/SVG/1.1/DTD/svg11.dtd"><svg t="1541761078541" class="icon" style="" viewBox="0 0 1024 1024" version="1.1" xmlns="http://www.w3.org/2000/svg" p-id="13956" xmlns:xlink="http://www.w3.org/1999/xlink" width="200" height="200"><defs><style type="text/css"></style></defs><path d="M725.902 498.916c18.205-251.45-93.298-410.738-205.369-475.592l-6.257-3.982-6.258 3.414c-111.502 64.853-224.711 224.142-204.8 475.59-55.751 53.476-80.214 116.623-80.214 204.8v15.36l179.2-35.27c11.378 40.39 58.596 69.973 113.21 69.973 54.613 0 101.262-29.582 112.64-68.836l180.337 36.41v-15.36c-0.569-89.885-25.031-153.6-82.489-206.507zM571.733 392.533c-33.564 31.29-87.04 28.445-118.329-5.12s-28.444-87.04 5.12-117.76c33.565-31.289 87.04-28.444 118.33 5.12s28.444 86.471-5.12 117.76z m-56.32 368.64c-35.84 0-64.284 29.014-64.284 64.285 0 35.84 54.044 182.613 64.284 182.613s64.285-146.773 64.285-182.613c0-35.271-29.014-64.285-64.285-64.285z" p-id="13957"></path></svg>