<?xml version="1.0" encoding="UTF-8"?>
<svg width="40px" height="40px" viewBox="0 0 40 40" version="1.1" xmlns="http://www.w3.org/2000/svg" xmlns:xlink="http://www.w3.org/1999/xlink">
    <!-- Generator: Sketch 53.2 (72643) - https://sketchapp.com -->
    <title>搜索</title>
    <desc>Created with Sketch.</desc>
    <g id="搜索" stroke="none" stroke-width="1" fill="none" fill-rule="evenodd">
        <g id="search" fill="#000000" fill-rule="nonzero">
            <path d="M33.16142,28.2215385 C37.9070146,21.1538462 37.2048762,11.5076923 30.9441403,5.28 C23.8673225,-1.76 12.3898204,-1.76 5.30992299,5.28 C-1.76997431,12.32 -1.76997431,23.7323077 5.30992299,30.7723077 C11.5737383,37 21.2681779,37.6953846 28.3265184,32.8984615 C28.3480753,32.9230769 34.5173943,39.2571867 34.5173943,39.2571867 C35.4348607,40.1992052 36.9359353,40.210089 37.8704024,39.2812331 L39.2662956,37.8937221 C40.2006443,36.9649842 40.2105068,35.4459252 39.2950668,34.5077196 L33.16142,28.2215385 Z M28.7291223,28.568946 C22.8751416,34.3855189 13.3822876,34.3855189 7.52506377,28.568946 C1.67108305,22.7458922 1.67108305,13.3065178 7.52506377,7.48670432 C13.3822876,1.66365053 22.8751416,1.66365053 28.7291223,7.48346391 C34.5798598,13.3065178 34.5798598,22.7458922 28.7291223,28.568946 L28.7291223,28.568946 Z" id="形状"></path>
        </g>
    </g>
</svg>