<?xml version="1.0" standalone="no"?><!DOCTYPE svg PUBLIC "-//W3C//DTD SVG 1.1//EN" "http://www.w3.org/Graphics/SVG/1.1/DTD/svg11.dtd"><svg class="icon" width="200px" height="200.00px" viewBox="0 0 1024 1024" version="1.1" xmlns="http://www.w3.org/2000/svg"><path fill="#333333" d="M1021.892 478.328C1013.097 295.575 902.355 121.916 734.93 45.9 554.225-36.17 335.089-1.897 184.47 125.591 41.38 246.694-25.811 441.976 14.999 625.12c40.508 181.821 179.23 329.337 359.875 377.616 213.595 57.103 408.697-43.881 528.655-219.678-108.815 145.197-272.865 241.092-458.842 208.956-183.145-31.623-333.523-171.098-375.386-352.557-44.605-193.265 44.604-395.776 217.027-493.779C465.107 44.062 712.764 81.59 831.79 255.85a407.432 407.432 0 0 1 61.35 144.836c9.246 43.61 5.36 87.19 11.776 130.71 5.662 38.28 39.544 91.589 83.727 62.917 38.25-24.817 35.72-76.5 33.25-115.984-0.512-10.962 1.385 21.956 0 0" /></svg>