<?xml version="1.0" standalone="no"?><!DOCTYPE svg PUBLIC "-//W3C//DTD SVG 1.1//EN" "http://www.w3.org/Graphics/SVG/1.1/DTD/svg11.dtd"><svg t="1541759574362" class="icon" style="" viewBox="0 0 1024 1024" version="1.1" xmlns="http://www.w3.org/2000/svg" p-id="2250" xmlns:xlink="http://www.w3.org/1999/xlink" width="200" height="200"><defs><style type="text/css"></style></defs><path d="M1022.293333 394.24c-5.12-15.36-17.066667-25.6-32.426666-27.306667l-303.786667-44.373333-136.533333-274.773333C542.72 34.133333 529.066667 25.6 512 25.6c-15.36 0-30.72 8.533333-37.546667 22.186667l-136.533333 274.773333-302.08 42.666667c-15.36 1.706667-29.013333 13.653333-32.426667 27.306666-5.12 15.36 0 30.72 10.24 42.666667l220.16 215.04-51.2 302.08c-3.413333 15.36 3.413333 30.72 17.066667 40.96 11.946667 8.533333 29.013333 10.24 42.666667 3.413333L512 853.333333l271.36 143.36c6.826667 3.413333 11.946667 5.12 18.773333 5.12 8.533333 0 17.066667-3.413333 23.893334-8.533333 11.946667-8.533333 18.773333-25.6 17.066666-40.96l-51.2-302.08 220.16-215.04c10.24-10.24 15.36-27.306667 10.24-40.96z" fill="#9C9C9C" p-id="2251"></path></svg>