<?xml version="1.0" standalone="no"?><!DOCTYPE svg PUBLIC "-//W3C//DTD SVG 1.1//EN" "http://www.w3.org/Graphics/SVG/1.1/DTD/svg11.dtd"><svg class="icon" width="200px" height="200.00px" viewBox="0 0 1024 1024" version="1.1" xmlns="http://www.w3.org/2000/svg"><path fill="#333333" d="M512 0C229.2 0 0 229.2 0 512s229.2 512 512 512 512-229.2 512-512S794.8 0 512 0z m260.3 356.4L412.8 717.1l-0.4 0.4c-2.4 2.6-5.3 4.9-8.5 6.7-5.6 3.2-11.8 4.7-17.8 4.7-12.5 0-24.7-6.5-31.3-18.2L245.9 520.3C236 503 242 481 259.3 471.2c17.3-9.9 39.3-3.9 49.1 13.4l85.4 149.5 327.5-328.5c14-14.1 36.8-14.1 50.9-0.1 14.1 14.1 14.1 36.9 0.1 50.9z" /></svg>